<svg xmlns="http://www.w3.org/2000/svg" enable-background="new 0 0 68 68" viewBox="0 0 68 68"><path fill="#010101" d="M60.51208 40.47998c0-1.76526-.19183-3.4881-.52362-5.16364l-3.89069 1.19202c-.09473.0293-.19385.04395-.29297.04395h-.88135l-1.50488 1.97803c-.31152.40918-.88281.51611-1.32031.24609l-2.74219-1.68945c-.25146-.15527-.42188-.41357-.46484-.70557l-.18652-1.26367H45.2428l-7.02148 5.5918V46.815l2.03613 2.12891 6.38477.8335c.16602.02197.32422.08496.45947.18359l2.55762 1.86279c.24561.17871.39648.45947.41016.7627.01367.30371-.11133.59717-.33984.79736l-.60938.53418 2.32422 1.86914c.21436.17236.34814.42578.37012.69971l.26758 3.35767C57.26367 55.00079 60.51208 48.1134 60.51208 40.47998zM41.62366 21.56841l1.89258-3.91797c.11865-.24609.3335-.43262.59326-.5166l1.4953-.4823c-1.71503-.8349-3.5257-1.51025-5.43274-1.96155-.02002.23999-.03998.47998-.08002.72998l-.02997.22003c-.21991 1.37903-.69958 2.99805-1.41876 4.79663l.57556 1.13177H41.62366z"/><path fill="#010101" d="M49.8551,57.07574l-2.91602-2.34521c-0.22998-0.18506-0.3667-0.46289-0.37305-0.75781
				c-0.00586-0.29541,0.11865-0.57861,0.34082-0.77344l0.56445-0.49512l-1.34082-0.97656l-6.48145-0.84619
				c-0.22607-0.02979-0.43555-0.13574-0.59326-0.30029l-2.55713-2.67334c-0.17822-0.18604-0.27734-0.43408-0.27734-0.69141V40.2276
				c0-0.30469,0.13867-0.59229,0.37695-0.78223l7.67188-6.10986c0.17725-0.14111,0.39648-0.21777,0.62305-0.21777h4.6748
				c0.49609,0,0.91699,0.36328,0.98926,0.854l0.24463,1.65674l1.57373,0.96973l1.25635-1.65137
				c0.18896-0.24854,0.4834-0.39453,0.7959-0.39453h1.22705l3.87549-1.1875c-1.78882-6.42786-5.93628-11.9112-11.51312-15.39002
				l-2.88629,0.93103l-1.97949,4.09766c-0.16699,0.34521-0.5166,0.56494-0.90039,0.56494h-3.64551
				c-0.37646,0-0.7207-0.21143-0.89111-0.54688l-0.10907-0.21442c-3.63538,7.76477-9.92084,16.75318-9.99335,16.85285
				c-0.56,0.79999-1.47998,1.28003-2.45001,1.28003c-0.96997,0-1.89001-0.48004-2.46002-1.28003h0.01001
				c-0.65015-0.88489-2.42084-3.5899-3.7605-5.72009l-0.21509,1.05872c-0.09473,0.46582-0.50439,0.80078-0.97998,0.80078h-1.40479
				l-0.64209,0.71191v1.62891c0,0.12305-0.02246,0.24463-0.06689,0.35938l-2.37207,6.15918
				c-0.11816,0.30664-0.37939,0.53564-0.69873,0.61279c-0.07764,0.01855-0.15625,0.02783-0.23438,0.02783
				c-0.24316,0-0.48145-0.08887-0.66699-0.25488l-3.2207-2.88135l-0.94672-0.2359
				c0.30273,5.59534,2.35284,10.73151,5.60809,14.88177l2.23999-2.14587c0.18604-0.17822,0.43408-0.27783,0.69189-0.27783h6.98682
				c0.30469,0,0.59229,0.13867,0.78223,0.37695l6.11035,7.67236c0.14111,0.17725,0.21777,0.39697,0.21777,0.62305v3.65948
				c1.25812,0.18378,2.54346,0.28284,3.85181,0.28284c6.10126,0,11.72443-2.07788,16.21106-5.55566L49.8551,57.07574z"/><path fill="#010101" d="M9.59827 40.50738l2.32666 2.08105 1.78467-4.63428v-1.82715c0-.24756.0918-.48584.25732-.66992l1.19727-1.32764c.18945-.20996.45947-.33008.74268-.33008h1.03223l.42529-2.09375c.01501-.07416.05701-.13641.08771-.20416-1.65118-2.73029-3.07159-5.28174-4.20001-7.57147C9.6297 28.45068 7.6217 34.00103 7.48792 39.86248l1.68555.4198C9.33118 40.32135 9.47717 40.39849 9.59827 40.50738zM16.44495 56.38531l-2.04346 1.95721c3.59534 3.93677 8.36078 6.78369 13.73877 7.99932v-2.93457l-5.59229-7.02197H16.44495zM25.16205 1c-7.19 0-13.03998 5.84998-13.03998 13.03998 0 2 .95001 4.96002 2.83997 8.79999.01001.03003.02002.06.03003.09003 1.33002 2.71002 3.08997 5.83997 5.23999 9.28998 2.22998 3.59003 4.09003 6.27002 4.10999 6.29004.19.26996.48999.42999.82001.42999s.63-.16003.82001-.42999c.31-.44 7.64001-10.99005 10.79999-18.81.66998-1.67004 1.10999-3.14001 1.31-4.38v-.06c.07001-.41003.10999-.82001.10999-1.22003C38.20203 6.84997 32.35205 1 25.16205 1zM25.16205 19.96996c-3.27002 0-5.91998-2.65997-5.91998-5.92999s2.64996-5.91998 5.91998-5.91998 5.91998 2.64996 5.91998 5.91998S28.43207 19.96996 25.16205 19.96996z"/></svg>