<svg width="50" height="51" viewBox="0 0 50 51" fill="none" xmlns="http://www.w3.org/2000/svg">
<path d="M47.9653 41.3694C41.028 54.4758 10.6982 53.103 2.45865 39.3316C-5.78085 25.5388 8.09372 -0.652548 23.2705 0.0124242C38.4473 0.698847 54.9026 28.263 47.9653 41.3694Z" fill="#E6E3F7"/>
<g clip-path="url(#clip0)">
<ellipse cx="30.5586" cy="33.988" rx="6.9614" ry="6.9614" fill="#FFC33E"/>
<ellipse cx="30.5587" cy="33.988" rx="2.04747" ry="2.04747" fill="#FF9E10"/>
<rect x="14.5884" y="20.4747" width="4.09494" height="15.5608" fill="#5B49BA"/>
<path d="M31.5083 26.6381V21.3641C31.5083 19.4026 29.9125 17.8067 27.9509 17.8067H15.5445C15.1278 17.8067 14.7886 17.4675 14.7886 17.0507C14.7886 16.6337 15.1278 16.2945 15.5445 16.2945H29.075C29.7289 16.2945 30.2609 15.7625 30.2609 15.1087C30.2609 14.4548 29.7289 13.9228 29.075 13.9228H15.5445C13.8199 13.9228 12.417 15.3259 12.417 17.0506V34.9416C12.417 36.9031 14.0128 38.499 15.9744 38.499H24.2086C25.5831 40.4735 27.8687 41.7684 30.4515 41.7684C34.6433 41.7684 38.0535 38.3581 38.0535 34.1665C38.0535 30.3332 35.2016 27.1541 31.5083 26.6381ZM17.5159 33.865C17.5159 34.389 17.0912 34.8137 16.5673 34.8137C16.0434 34.8137 15.6187 34.389 15.6187 33.865V21.5214C15.6187 20.9974 16.0434 20.5727 16.5673 20.5727C17.0912 20.5727 17.5159 20.9974 17.5159 21.5214V33.865ZM30.4515 40.064C27.1994 40.064 24.5536 37.4183 24.5536 34.1663C24.5536 30.9143 27.1994 28.2685 30.4515 28.2685C33.7036 28.2685 36.3494 30.9143 36.3494 34.1663C36.3494 37.4183 33.7036 40.064 30.4515 40.064Z" fill="#7358D4"/>
<path d="M30.4513 31.3806C28.9127 31.3806 27.6655 32.6278 27.6655 34.1663C27.6655 35.7047 28.9127 36.952 30.4513 36.952C31.9898 36.952 33.2371 35.7047 33.2371 34.1663C33.2371 32.6278 31.9899 31.3806 30.4513 31.3806ZM30.4513 35.3177C29.8153 35.3177 29.2998 34.8021 29.2998 34.1663C29.2998 33.5304 29.8153 33.0148 30.4513 33.0148C31.0872 33.0148 31.6027 33.5304 31.6027 34.1663C31.6027 34.8022 31.0872 35.3177 30.4513 35.3177Z" fill="#7358D4"/>
</g>
<defs>
<clipPath id="clip0">
<rect width="27.8456" height="27.8456" fill="white" transform="translate(11.3125 13.9228)"/>
</clipPath>
</defs>
</svg>
