<svg width="51" height="51" viewBox="0 0 51 51" fill="none" xmlns="http://www.w3.org/2000/svg">
<path d="M48.8071 41.3673C41.8701 54.473 11.5418 53.1002 3.30276 39.3295C-4.93631 25.5374 8.93753 -0.652514 24.1135 0.0124236C39.2895 0.698811 55.744 28.2615 48.8071 41.3673Z" fill="#E6E3F7"/>
<mask id="mask0" mask-type="alpha" maskUnits="userSpaceOnUse" x="0" y="0" width="51" height="51">
<path d="M48.8071 41.3673C41.8701 54.473 11.5418 53.1002 3.30276 39.3295C-4.93631 25.5374 8.93753 -0.652514 24.1135 0.0124236C39.2895 0.698811 55.744 28.2615 48.8071 41.3673Z" fill="#E6E3F7"/>
</mask>
<g mask="url(#mask0)">
<path d="M28.2126 40.1663L31.9096 36.6939L30.4418 36.4213C29.7333 36.2789 29.2237 35.457 29.2237 34.7344V31.5143H25.7909H22.3583V34.7344C22.3583 35.457 21.8486 36.2788 21.1402 36.4213L19.6724 36.6939L23.3694 40.1663C24.7306 41.445 26.8513 41.445 28.2126 40.1663Z" fill="#FFC953"/>
<path d="M27.5605 31.5143V36.3971C27.5605 37.1197 28.0703 37.9415 28.7787 38.0839L30.0437 38.446L31.9091 36.6939L30.4413 36.4213C29.7328 36.2789 29.2232 35.457 29.2232 34.7344V31.5143H27.5605Z" fill="#FF9E10"/>
<path d="M30.0762 36.2447L25.7907 39.4477L21.5053 36.2447C21.2755 36.0729 20.9778 36.0205 20.7032 36.1033L13.5035 38.2757C12.7289 38.5094 12.1532 39.1612 12.017 39.9588L10.4307 49.245C10.3216 49.8841 10.8139 50.4675 11.4621 50.4675H40.1193C40.7676 50.4675 41.2598 49.8841 41.1507 49.245L39.5645 39.9588C39.4283 39.1612 38.8526 38.5094 38.078 38.2757L30.8783 36.1033C30.6036 36.0205 30.3059 36.0729 30.0762 36.2447Z" fill="#FDFFFF"/>
<g filter="url(#filter0_d)">
<path d="M20.7034 36.1034L19.4648 36.4771L22.1983 40.3021C22.4135 40.6032 22.8089 40.7145 23.1496 40.5698L25.791 39.4478L21.5055 36.2447C21.2757 36.0729 20.9781 36.0205 20.7034 36.1034Z" fill="#EFF4F9"/>
</g>
<g filter="url(#filter1_d)">
<path d="M28.4324 40.5698C28.773 40.7145 29.1685 40.6033 29.3836 40.3021L32.1171 36.4771L32.1105 36.4751L30.8786 36.1034C30.6039 36.0205 30.3062 36.073 30.0765 36.2447L25.791 39.4477L28.4324 40.5698Z" fill="#EFF4F9"/>
</g>
<path d="M25.7905 39.4478L23.7134 40.3302L24.9277 41.7418H26.6534L27.8677 40.3302L25.7905 39.4478Z" fill="#503E3B"/>
<path d="M26.6533 41.7417H25.7905H24.9276L23.334 50.4675H28.247L26.6533 41.7417Z" fill="#503E3B"/>
<path d="M25.7907 48.8475C25.7907 48.8475 20.9778 36.0205 20.7032 36.1034L13.5035 38.2757C12.7289 38.5094 12.1532 39.1612 12.017 39.9588L10.4307 49.245C10.3216 49.8841 10.8139 50.4675 11.4621 50.4675H40.1193C40.7676 50.4675 41.2598 49.8841 41.1507 49.245L39.5645 39.9588C39.4283 39.1612 38.8526 38.5094 38.078 38.2757L30.8783 36.1033C30.6036 36.0205 25.7907 48.8475 25.7907 48.8475Z" fill="#7358D4"/>
<path d="M41.1505 49.245L39.5643 39.9588C39.4281 39.1612 38.8524 38.5094 38.0778 38.2757L30.8781 36.1033C30.8035 36.0808 30.3934 37.0123 29.8359 38.3808L35.0575 39.9562C35.4522 40.0753 35.7455 40.4074 35.815 40.8138L37.4639 50.4675H40.1191C40.7674 50.4675 41.2597 49.884 41.1505 49.245Z" fill="#5B49BA"/>
<path d="M33.444 43.2153C33.154 43.2153 32.9189 42.9802 32.9189 42.6902V36.7305C32.9189 34.7387 31.3619 33.105 29.3743 33.0111C29.0847 32.9974 28.861 32.7516 28.8746 32.4619C28.8883 32.1722 29.1343 31.9487 29.4238 31.9622C31.9726 32.0825 33.969 34.1769 33.969 36.7304V42.6901C33.969 42.9802 33.7339 43.2153 33.444 43.2153Z" fill="#44798C"/>
<path d="M18.1374 39.3305C17.8474 39.3305 17.6123 39.0954 17.6123 38.8054V36.7312C17.6123 34.1848 19.603 32.0906 22.1443 31.9636C22.4347 31.9485 22.6805 32.1722 22.695 32.4618C22.7094 32.7514 22.4864 32.9979 22.1968 33.0123C20.2149 33.1114 18.6624 34.7449 18.6624 36.7312V38.8054C18.6624 39.0955 18.4274 39.3305 18.1374 39.3305Z" fill="#44798C"/>
<path d="M33.4387 45.227C34.6491 45.227 35.6303 44.2458 35.6303 43.0354C35.6303 41.825 34.6491 40.8438 33.4387 40.8438C32.2283 40.8438 31.2471 41.825 31.2471 43.0354C31.2471 44.2458 32.2283 45.227 33.4387 45.227Z" fill="#2AACF4"/>
<path d="M33.4382 44.001C33.9715 44.001 34.4038 43.5687 34.4038 43.0354C34.4038 42.5021 33.9715 42.0698 33.4382 42.0698C32.905 42.0698 32.4727 42.5021 32.4727 43.0354C32.4727 43.5687 32.905 44.001 33.4382 44.001Z" fill="#E1EFFB"/>
<path d="M19.8737 47.3364H19.2191C18.9291 47.3364 18.694 47.1014 18.694 46.8114C18.694 46.5214 18.9291 46.2863 19.2191 46.2863H19.8737C19.9528 46.2863 20.0289 46.253 20.0825 46.195C20.1362 46.1369 20.1635 46.0585 20.1574 45.9798L19.7748 41.0709C19.7612 40.8969 19.7199 40.7272 19.6519 40.5667C19.4095 39.9945 18.8349 39.6265 18.1858 39.6265C18.1818 39.6265 18.1778 39.6265 18.1737 39.6265L18.0872 39.6271C17.4193 39.6318 16.8221 40.0385 16.601 40.639C16.55 40.7778 16.5182 40.9231 16.5067 41.0709L16.1242 45.9797C16.118 46.0586 16.1453 46.1369 16.1989 46.1949C16.2526 46.253 16.3288 46.2863 16.4077 46.2863H17.0624C17.3524 46.2863 17.5874 46.5214 17.5874 46.8114C17.5874 47.1014 17.3524 47.3364 17.0624 47.3364H16.4077C16.0369 47.3364 15.6798 47.1803 15.4281 46.9081C15.1763 46.636 15.0484 46.2679 15.0773 45.8981L15.4597 40.9893C15.4787 40.7453 15.5312 40.5054 15.6156 40.2763C15.987 39.2677 16.9772 38.5849 18.0798 38.5771L18.1663 38.5765C18.1728 38.5765 18.1793 38.5765 18.1859 38.5765C19.2578 38.5765 20.2113 39.1953 20.6188 40.1572C20.7311 40.4221 20.7993 40.7021 20.8217 40.9894L21.2043 45.8982C21.2331 46.2678 21.1052 46.6359 20.8534 46.9082C20.6016 47.1803 20.2445 47.3364 19.8737 47.3364Z" fill="#2AACF4"/>
<path d="M19.7326 26.7774V24.8128H18.5342C17.9644 24.8128 17.5024 25.2748 17.5024 25.8446V26.6426C17.5024 27.2125 17.9644 27.6744 18.5342 27.6744H19.7326V26.7774Z" fill="#FCD681"/>
<path d="M33.047 24.8128H31.8486V26.7774V27.6744H33.047C33.6168 27.6744 34.0787 27.2125 34.0787 26.6426V25.8446C34.0787 25.2748 33.6168 24.8128 33.047 24.8128Z" fill="#FCD681"/>
<path d="M30.196 18.1218C29.1625 17.232 27.7098 17.2898 25.7909 17.2683C23.872 17.2898 22.4193 17.2319 21.3858 18.1217C20.0677 19.2567 19.3535 20.9423 19.3535 22.6818V27.7381C19.3535 29.4776 21.5398 34.0916 25.7908 34.0916C30.0419 34.0916 32.2282 29.4776 32.2282 27.7381V22.6818C32.2282 20.9423 31.5141 19.2568 30.196 18.1218Z" fill="#FFC33E"/>
<path d="M30.1959 18.1218C29.7854 17.7684 29.3085 17.5648 28.7627 17.446C28.7627 17.4486 28.7628 17.4509 28.7628 17.4535V27.7382C28.7628 29.2231 27.1692 32.8023 24.0581 33.8181C24.5913 33.9922 25.1687 34.0916 25.7908 34.0916C30.0418 34.0916 32.2281 29.4777 32.2281 27.7382V22.6818C32.2281 20.9423 31.514 19.2568 30.1959 18.1218Z" fill="#FF9E10"/>
<path d="M29.6635 15.6623H25.7908H21.9181C19.9252 15.6623 18.3096 17.2779 18.3096 19.2709V25.1947C18.3096 25.1947 19.3032 25.1722 19.9417 25.8042C20.0747 25.9358 20.3007 25.8396 20.3007 25.6525V20.8054C20.3007 19.9245 21.0148 19.2104 21.8957 19.2104H23.345C23.7251 19.2104 24.0935 19.3418 24.3878 19.5824L24.5299 19.6987C24.8857 19.9895 25.3311 20.1484 25.7907 20.1484C26.2503 20.1484 26.6957 19.9895 27.0515 19.6987L27.1937 19.5824C27.4879 19.3418 27.8564 19.2104 28.2365 19.2104H29.6858C30.5666 19.2104 31.2808 19.9245 31.2808 20.8054V25.6526C31.2808 25.8397 31.5067 25.9359 31.6397 25.8042C32.2782 25.1723 33.2719 25.1948 33.2719 25.1948V19.2709C33.2719 17.2779 31.6563 15.6623 29.6635 15.6623Z" fill="#090E3F"/>
<path d="M29.6635 15.6623H26.1982C28.1726 15.6623 29.7756 17.2481 29.8053 19.2153C30.6304 19.2764 31.2809 19.9647 31.2809 20.8054V25.6526C31.2809 25.8397 31.5068 25.9359 31.6398 25.8042C32.2783 25.1723 33.272 25.1948 33.272 25.1948V19.2709C33.272 17.2779 31.6564 15.6623 29.6635 15.6623Z" fill="#141840"/>
</g>
<defs>
<filter id="filter0_d" x="15.4648" y="36.0648" width="14.3261" height="12.5679" filterUnits="userSpaceOnUse" color-interpolation-filters="sRGB">
<feFlood flood-opacity="0" result="BackgroundImageFix"/>
<feColorMatrix in="SourceAlpha" type="matrix" values="0 0 0 0 0 0 0 0 0 0 0 0 0 0 0 0 0 0 127 0"/>
<feOffset dy="4"/>
<feGaussianBlur stdDeviation="2"/>
<feColorMatrix type="matrix" values="0 0 0 0 0 0 0 0 0 0 0 0 0 0 0 0 0 0 0.25 0"/>
<feBlend mode="normal" in2="BackgroundImageFix" result="effect1_dropShadow"/>
<feBlend mode="normal" in="SourceGraphic" in2="effect1_dropShadow" result="shape"/>
</filter>
<filter id="filter1_d" x="21.791" y="36.0649" width="14.3261" height="12.5679" filterUnits="userSpaceOnUse" color-interpolation-filters="sRGB">
<feFlood flood-opacity="0" result="BackgroundImageFix"/>
<feColorMatrix in="SourceAlpha" type="matrix" values="0 0 0 0 0 0 0 0 0 0 0 0 0 0 0 0 0 0 127 0"/>
<feOffset dy="4"/>
<feGaussianBlur stdDeviation="2"/>
<feColorMatrix type="matrix" values="0 0 0 0 0 0 0 0 0 0 0 0 0 0 0 0 0 0 0.25 0"/>
<feBlend mode="normal" in2="BackgroundImageFix" result="effect1_dropShadow"/>
<feBlend mode="normal" in="SourceGraphic" in2="effect1_dropShadow" result="shape"/>
</filter>
</defs>
</svg>
