<svg width="45" height="45" viewBox="0 0 45 45" fill="none" xmlns="http://www.w3.org/2000/svg">
<rect width="45" height="45" rx="10" fill="#F79A1C" fill-opacity="0.1"/>
<path d="M13 33V18C13 17.7348 13.1054 17.4804 13.2929 17.2929C13.4804 17.1054 13.7348 17 14 17H18V13H28V17H32C32.2652 17 32.5196 17.1054 32.7071 17.2929C32.8946 17.4804 33 17.7348 33 18V33H25V28H21V33H13ZM20 15V21H22V19H24V21H26V15H24V17H22V15H20ZM15 31H19V28H15V31ZM15 26H19V23H15V26ZM27 31H31V28H27V31ZM27 26H31V23H27V26ZM21 26H25V23H21V26Z" fill="#F79A1C"/>
</svg>
