<svg width="28" height="28" viewBox="0 0 28 28" fill="none" xmlns="http://www.w3.org/2000/svg">
<g filter="url(#filter0_d)">
<path d="M9 0.7C8.28203 0.7 7.7 1.28203 7.7 2C7.7 2.71797 8.28203 3.3 9 3.3V0.7ZM25 3.3C25.718 3.3 26.3 2.71797 26.3 2C26.3 1.28203 25.718 0.7 25 0.7V3.3ZM9 3.3H25V0.7H9V3.3Z" fill="#212740"/>
<path d="M9 16.7C8.28203 16.7 7.7 17.282 7.7 18C7.7 18.718 8.28203 19.3 9 19.3V16.7ZM25 19.3C25.718 19.3 26.3 18.718 26.3 18C26.3 17.282 25.718 16.7 25 16.7V19.3ZM9 19.3H25V16.7H9V19.3Z" fill="#212740"/>
<path d="M9 8.7C8.28203 8.7 7.7 9.28203 7.7 10C7.7 10.718 8.28203 11.3 9 11.3V8.7ZM19 11.3C19.718 11.3 20.3 10.718 20.3 10C20.3 9.28203 19.718 8.7 19 8.7V11.3ZM9 11.3H19V8.7H9V11.3Z" fill="#212740"/>
</g>
<defs>
<filter id="filter0_d" x="0.700195" y="0.699997" width="26.6" height="26.6" filterUnits="userSpaceOnUse" color-interpolation-filters="sRGB">
<feFlood flood-opacity="0" result="BackgroundImageFix"/>
<feColorMatrix in="SourceAlpha" type="matrix" values="0 0 0 0 0 0 0 0 0 0 0 0 0 0 0 0 0 0 127 0"/>
<feOffset dx="-3" dy="4"/>
<feGaussianBlur stdDeviation="2"/>
<feColorMatrix type="matrix" values="0 0 0 0 0.129412 0 0 0 0 0.152941 0 0 0 0 0.25098 0 0 0 0.2 0"/>
<feBlend mode="normal" in2="BackgroundImageFix" result="effect1_dropShadow"/>
<feBlend mode="normal" in="SourceGraphic" in2="effect1_dropShadow" result="shape"/>
</filter>
</defs>
</svg>
