<svg width="50" height="51" viewBox="0 0 50 51" fill="none" xmlns="http://www.w3.org/2000/svg">
<path d="M47.9628 41.3673C41.0259 54.473 10.6976 53.1002 2.45853 39.3295C-5.78055 25.5374 8.09329 -0.652514 23.2693 0.0124236C38.4453 0.698811 54.8997 28.2615 47.9628 41.3673Z" fill="#E6E3F7"/>
<path d="M15.2207 28.7143H35.9839V37.4987H15.2207V28.7143Z" fill="#5B49BA"/>
<path d="M13.4805 20.8831H36.6395V28.0704H13.4805V20.8831Z" fill="#FFC33E"/>
<path d="M13.4805 20.8831H18.7012V27.8442H13.4805V20.8831Z" fill="#FF9E10"/>
<path d="M37.0705 18.2773L25.7326 13.9221L24.7233 16.6761L28.7936 18.2405H13.7415C12.1565 18.2405 10.8701 19.558 10.8701 21.1812V38.8255C10.8701 40.4488 12.1565 41.7662 13.7415 41.7662H36.713C38.298 41.7662 39.5844 40.4488 39.5844 38.8255V21.1812C39.5844 19.6815 38.4846 18.4596 37.0705 18.2773ZM22.3558 35.8848H16.613V32.9441H22.3558V35.8848ZM31.688 37.3552C29.7053 37.3552 28.0987 35.7098 28.0987 33.6793C28.0987 31.6487 29.7053 30.0034 31.688 30.0034C33.6707 30.0034 35.2773 31.6487 35.2773 33.6793C35.2773 35.7098 33.6707 37.3552 31.688 37.3552ZM36.713 27.0627H13.7415V21.1812H36.713V27.0627Z" fill="#7358D4"/>
</svg>
