<svg width="50" height="51" viewBox="0 0 50 51" fill="none" xmlns="http://www.w3.org/2000/svg">
<path d="M47.9653 41.3694C41.028 54.4758 10.6982 53.103 2.45865 39.3316C-5.78085 25.5388 8.09372 -0.652548 23.2705 0.0124242C38.4473 0.698847 54.9026 28.263 47.9653 41.3694Z" fill="#E6E3F7"/>
<g clip-path="url(#clip0)">
<path d="M28.4295 34.2202C27.4765 34.2202 26.7031 33.4468 26.7031 32.4938C26.7031 31.5407 27.4765 30.7674 28.4295 30.7674C29.3826 30.7674 30.1559 31.5407 30.1559 32.4938C30.1559 33.4468 29.3826 34.2202 28.4295 34.2202Z" fill="#5B49BA"/>
<path d="M34.2401 34.2202C33.287 34.2202 32.5137 33.4468 32.5137 32.4938C32.5137 31.5407 33.287 30.7674 34.2401 30.7674C35.1931 30.7674 35.9665 31.5407 35.9665 32.4938C35.9665 33.4468 35.1931 34.2202 34.2401 34.2202Z" fill="#7358D4"/>
<path d="M37.0666 27.4835L35.9066 23.998C35.7487 23.5296 35.313 23.2138 34.8229 23.2138H26.4196L26.0547 21.7542C25.9295 21.2477 25.472 20.8883 24.9437 20.8883H22.6183C21.9865 20.8883 21.4746 21.4002 21.4746 22.032C21.4746 22.6637 21.9865 23.1756 22.6183 23.1756H24.0506L24.4155 24.6352L25.5755 29.2807C25.7062 29.7926 26.1637 30.1466 26.6865 30.1466C26.7355 30.1466 26.7791 30.1411 26.8281 30.1357L36.1245 28.9757C36.4621 28.9321 36.7671 28.7415 36.9523 28.4529C37.132 28.1642 37.1755 27.8102 37.0666 27.4835ZM27.5524 27.7503L26.9914 25.5066H33.9951L34.458 26.8844L27.5524 27.7503Z" fill="#7358D4"/>
<ellipse cx="21.3195" cy="37.8526" rx="2.17544" ry="2.17544" fill="#FFC33E"/>
<path d="M25.9622 36.513C25.6627 36.4476 25.4176 36.2679 25.2597 36.0283C25.1126 35.805 25.3523 36.5783 22.3243 25.4902C20.5325 25.3377 19.1274 23.8183 19.1547 21.9829C19.1819 20.0823 20.7722 18.5683 22.6728 18.5683H28.6853C29.1754 18.5683 29.573 18.1707 29.573 17.6806C29.573 15.6111 27.8956 13.9228 25.8152 13.9228H17.1015C15.0266 13.9228 13.3438 15.6056 13.3438 17.6806V38.0107C13.3438 40.0856 15.0266 41.7684 17.1015 41.7684H25.8152C27.8901 41.7684 29.573 40.0856 29.573 38.0107V37.4334C29.573 36.9432 29.1754 36.5457 28.6798 36.5457C25.8696 36.5457 26.1093 36.5457 25.9622 36.513ZM21.4584 39.4647C20.8157 39.4647 20.2983 38.9419 20.2983 38.3047C20.2983 37.6676 20.8212 37.1447 21.4584 37.1447C22.0955 37.1447 22.6184 37.6676 22.6184 38.3047C22.6238 38.9419 22.101 39.4647 21.4584 39.4647Z" fill="#7358D4"/>
</g>
<defs>
<clipPath id="clip0">
<rect width="27.8456" height="27.8456" fill="white" transform="translate(11.3125 13.9228)"/>
</clipPath>
</defs>
</svg>
