<svg width="50" height="51" viewBox="0 0 50 51" fill="none" xmlns="http://www.w3.org/2000/svg">
<path d="M47.9653 41.3694C41.028 54.4758 10.6982 53.103 2.45865 39.3316C-5.78085 25.5388 8.09372 -0.652548 23.2705 0.0124242C38.4473 0.698847 54.9026 28.263 47.9653 41.3694Z" fill="#E6E3F7"/>
<path d="M35.6258 20.7558H27.8104L31.0185 17.5436L29.0402 15.5628L24.433 20.1758L19.8257 15.5628L17.8474 17.5436L21.0555 20.7558H13.2401C11.6969 20.7558 10.4419 22.0123 10.4419 23.5574V38.9667C10.4419 40.5119 11.6969 41.7684 13.2401 41.7684H35.6258C37.169 41.7684 38.424 40.5119 38.424 38.9667V31.2621V23.5574C38.424 22.0123 37.169 20.7558 35.6258 20.7558Z" fill="#7358D4"/>
<rect x="13.0522" y="23.4947" width="22.6246" height="15.6632" rx="4" fill="#5B49BA"/>
<circle cx="29.1506" cy="16.9684" r="2.44561" fill="#FFC33E" stroke="#FF9E10" stroke-width="1.2"/>
<circle cx="19.5788" cy="16.9684" r="2.44561" fill="#FFC33E" stroke="#FF9E10" stroke-width="1.2"/>
</svg>
