<svg width="50" height="51" viewBox="0 0 50 51" fill="none" xmlns="http://www.w3.org/2000/svg">
<path d="M47.9628 41.3673C41.0259 54.473 10.6976 53.1002 2.45853 39.3295C-5.78055 25.5374 8.09329 -0.652514 23.2693 0.0124236C38.4453 0.698811 54.8997 28.2615 47.9628 41.3673Z" fill="#F5F5F5"/>
<path d="M34.7502 26.296C34.7502 24.8176 33.7018 23.5811 32.3128 23.2836C32.8678 22.3571 33.2085 21.2856 33.2085 20.1293C33.2085 16.7284 30.4427 13.9627 27.0418 13.9627C24.7047 13.9627 22.6912 15.2839 21.646 17.2063C20.6007 15.2839 18.5873 13.9627 16.2502 13.9627C12.8492 13.9627 10.0835 16.7284 10.0835 20.1293C10.0835 21.5199 10.5645 22.7903 11.343 23.8232C10.583 24.3859 10.0835 25.2801 10.0835 26.296V38.6293C10.0835 40.3298 11.4664 41.7127 13.1668 41.7127H31.6668C33.3673 41.7127 34.7502 40.3298 34.7502 38.6293V34.564L40.9168 37.6473V26.8556L34.7502 29.939V26.296ZM27.0418 17.046C28.7423 17.046 30.1252 18.4289 30.1252 20.1293C30.1252 21.8298 28.7423 23.2127 27.0418 23.2127C25.3414 23.2127 23.9585 21.8298 23.9585 20.1293C23.9585 18.4289 25.3414 17.046 27.0418 17.046ZM16.2502 17.046C17.9506 17.046 19.3335 18.4289 19.3335 20.1293C19.3335 21.8298 17.9506 23.2127 16.2502 23.2127C14.5497 23.2127 13.1668 21.8298 13.1668 20.1293C13.1668 18.4289 14.5497 17.046 16.2502 17.046Z" fill="#7358D4"/>
<rect x="15.8096" y="26.9567" width="6.16667" height="11.4524" fill="#5B49BA"/>
<rect x="24.6191" y="32.2424" width="4.40476" height="6.16667" fill="#5B49BA"/>
<ellipse cx="16.6903" cy="19.9091" rx="3.52381" ry="3.52381" fill="#FFC33E"/>
<ellipse cx="15.8098" cy="19.0282" rx="1.7619" ry="1.7619" fill="#FF9E10"/>
<ellipse cx="27.2621" cy="19.9091" rx="3.52381" ry="3.52381" fill="#FFC33E"/>
<circle cx="26.381" cy="19.0282" r="1.7619" fill="#FF9E10"/>
</svg>
